# xmcd CD database file
#
# Track frame offsets:
#	182
#	20035
#	40625
#	64627
#	83487
#	102372
#	120352
#	139240
#	163452
#	190200
#	215342
#	238057
#	261405
#
# Disc length: 3599 seconds
#
# Revision: 3
# Processed by: cddbd v1.5.2PL0 Copyright (c) Steve Scherf et al.
# Submitted via: CDex 1.70beta2
#
DISCID=b50e0d0d
DTITLE=山下久美子 - Joy for U
DYEAR=1991
DGENRE=Pop
TTITLE0=恋の数だけ流した涙
TTITLE1=REF･RAIN
TTITLE2=君がいれば
TTITLE3=I’M LONELY
TTITLE4=友達でいようよ
TTITLE5=SEASON
TTITLE6=Let me go!
TTITLE7=ファンタジア
TTITLE8=ロマンス
TTITLE9=JOY FOR U
TTITLE10=微笑みをもう一度
TTITLE11=Tonight （星の降る夜に）
TTITLE12=春に降る雪
EXTD=YEAR: 1991
EXTT0=
EXTT1=
EXTT2=
EXTT3=
EXTT4=
EXTT5=
EXTT6=
EXTT7=
EXTT8=
EXTT9=
EXTT10=
EXTT11=
EXTT12=
PLAYORDER=
